<mxfile host="app.diagrams.net" modified="2023-08-09T14:18:34.850Z" agent="Mozilla/5.0 (Windows NT 10.0; Win64; x64) AppleWebKit/537.36 (KHTML, like Gecko) Chrome/115.0.0.0 Safari/537.36" etag="rBDiDFFJaOPVMN8NnVVt" version="21.6.5" type="github">
  <diagram id="C5RBs43oDa-KdzZeNtuy" name="Page-1">
    <mxGraphModel dx="1434" dy="796" grid="1" gridSize="10" guides="1" tooltips="1" connect="1" arrows="1" fold="1" page="1" pageScale="1" pageWidth="827" pageHeight="1169" math="0" shadow="0">
      <root>
        <mxCell id="WIyWlLk6GJQsqaUBKTNV-0" />
        <mxCell id="WIyWlLk6GJQsqaUBKTNV-1" parent="WIyWlLk6GJQsqaUBKTNV-0" />
        <mxCell id="3cGBZ7wLhSCAaPrIcpZm-4" style="edgeStyle=orthogonalEdgeStyle;rounded=0;orthogonalLoop=1;jettySize=auto;html=1;startArrow=classic;startFill=1;" edge="1" parent="WIyWlLk6GJQsqaUBKTNV-1" source="3cGBZ7wLhSCAaPrIcpZm-0" target="3cGBZ7wLhSCAaPrIcpZm-2">
          <mxGeometry relative="1" as="geometry" />
        </mxCell>
        <mxCell id="3cGBZ7wLhSCAaPrIcpZm-0" value="ORCH CALL" style="rounded=1;whiteSpace=wrap;html=1;" vertex="1" parent="WIyWlLk6GJQsqaUBKTNV-1">
          <mxGeometry x="30" y="70" width="120" height="60" as="geometry" />
        </mxCell>
        <mxCell id="3cGBZ7wLhSCAaPrIcpZm-1" value="FEWB Rebuild by WO" style="text;strokeColor=none;fillColor=none;html=1;fontSize=24;fontStyle=1;verticalAlign=middle;align=center;" vertex="1" parent="WIyWlLk6GJQsqaUBKTNV-1">
          <mxGeometry x="364" y="20" width="100" height="40" as="geometry" />
        </mxCell>
        <mxCell id="3cGBZ7wLhSCAaPrIcpZm-5" style="edgeStyle=orthogonalEdgeStyle;rounded=0;orthogonalLoop=1;jettySize=auto;html=1;startArrow=classic;startFill=1;" edge="1" parent="WIyWlLk6GJQsqaUBKTNV-1" source="3cGBZ7wLhSCAaPrIcpZm-2" target="3cGBZ7wLhSCAaPrIcpZm-3">
          <mxGeometry relative="1" as="geometry" />
        </mxCell>
        <mxCell id="3cGBZ7wLhSCAaPrIcpZm-2" value=".NET API" style="rounded=0;whiteSpace=wrap;html=1;" vertex="1" parent="WIyWlLk6GJQsqaUBKTNV-1">
          <mxGeometry x="354" y="70" width="120" height="60" as="geometry" />
        </mxCell>
        <mxCell id="3cGBZ7wLhSCAaPrIcpZm-3" value="JDE ORACLE" style="shape=cylinder3;whiteSpace=wrap;html=1;boundedLbl=1;backgroundOutline=1;size=15;" vertex="1" parent="WIyWlLk6GJQsqaUBKTNV-1">
          <mxGeometry x="680" y="60" width="100" height="80" as="geometry" />
        </mxCell>
        <mxCell id="3cGBZ7wLhSCAaPrIcpZm-6" value=".NET API" style="text;strokeColor=none;fillColor=none;html=1;fontSize=24;fontStyle=1;verticalAlign=middle;align=center;" vertex="1" parent="WIyWlLk6GJQsqaUBKTNV-1">
          <mxGeometry x="340" y="200" width="100" height="40" as="geometry" />
        </mxCell>
        <mxCell id="3cGBZ7wLhSCAaPrIcpZm-12" style="edgeStyle=orthogonalEdgeStyle;rounded=0;orthogonalLoop=1;jettySize=auto;html=1;" edge="1" parent="WIyWlLk6GJQsqaUBKTNV-1" source="3cGBZ7wLhSCAaPrIcpZm-7" target="3cGBZ7wLhSCAaPrIcpZm-10">
          <mxGeometry relative="1" as="geometry" />
        </mxCell>
        <mxCell id="3cGBZ7wLhSCAaPrIcpZm-7" value="INIT WO Object" style="rounded=1;whiteSpace=wrap;html=1;" vertex="1" parent="WIyWlLk6GJQsqaUBKTNV-1">
          <mxGeometry x="70" y="260" width="120" height="60" as="geometry" />
        </mxCell>
        <mxCell id="3cGBZ7wLhSCAaPrIcpZm-13" style="edgeStyle=orthogonalEdgeStyle;rounded=0;orthogonalLoop=1;jettySize=auto;html=1;" edge="1" parent="WIyWlLk6GJQsqaUBKTNV-1" source="3cGBZ7wLhSCAaPrIcpZm-10" target="3cGBZ7wLhSCAaPrIcpZm-11">
          <mxGeometry relative="1" as="geometry" />
        </mxCell>
        <mxCell id="3cGBZ7wLhSCAaPrIcpZm-10" value="QRY WO INFO" style="shape=cylinder3;whiteSpace=wrap;html=1;boundedLbl=1;backgroundOutline=1;size=15;" vertex="1" parent="WIyWlLk6GJQsqaUBKTNV-1">
          <mxGeometry x="330" y="250" width="120" height="80" as="geometry" />
        </mxCell>
        <mxCell id="3cGBZ7wLhSCAaPrIcpZm-15" style="edgeStyle=orthogonalEdgeStyle;rounded=0;orthogonalLoop=1;jettySize=auto;html=1;" edge="1" parent="WIyWlLk6GJQsqaUBKTNV-1" source="3cGBZ7wLhSCAaPrIcpZm-11" target="3cGBZ7wLhSCAaPrIcpZm-14">
          <mxGeometry relative="1" as="geometry">
            <Array as="points">
              <mxPoint x="633" y="360" />
              <mxPoint x="400" y="360" />
            </Array>
          </mxGeometry>
        </mxCell>
        <mxCell id="3cGBZ7wLhSCAaPrIcpZm-17" style="edgeStyle=orthogonalEdgeStyle;rounded=0;orthogonalLoop=1;jettySize=auto;html=1;" edge="1" parent="WIyWlLk6GJQsqaUBKTNV-1" source="3cGBZ7wLhSCAaPrIcpZm-14" target="3cGBZ7wLhSCAaPrIcpZm-16">
          <mxGeometry relative="1" as="geometry" />
        </mxCell>
        <mxCell id="3cGBZ7wLhSCAaPrIcpZm-33" style="edgeStyle=orthogonalEdgeStyle;rounded=0;orthogonalLoop=1;jettySize=auto;html=1;entryX=0;entryY=0.5;entryDx=0;entryDy=0;" edge="1" parent="WIyWlLk6GJQsqaUBKTNV-1" source="3cGBZ7wLhSCAaPrIcpZm-14" target="3cGBZ7wLhSCAaPrIcpZm-32">
          <mxGeometry relative="1" as="geometry" />
        </mxCell>
        <mxCell id="3cGBZ7wLhSCAaPrIcpZm-14" value="For Every Heat&amp;nbsp;&lt;br&gt;Thread Handler" style="rounded=0;whiteSpace=wrap;html=1;" vertex="1" parent="WIyWlLk6GJQsqaUBKTNV-1">
          <mxGeometry x="340" y="400" width="120" height="60" as="geometry" />
        </mxCell>
        <mxCell id="3cGBZ7wLhSCAaPrIcpZm-27" style="edgeStyle=orthogonalEdgeStyle;rounded=0;orthogonalLoop=1;jettySize=auto;html=1;entryX=0.5;entryY=0;entryDx=0;entryDy=0;startArrow=classic;startFill=1;" edge="1" parent="WIyWlLk6GJQsqaUBKTNV-1" source="3cGBZ7wLhSCAaPrIcpZm-16" target="3cGBZ7wLhSCAaPrIcpZm-20">
          <mxGeometry relative="1" as="geometry" />
        </mxCell>
        <mxCell id="3cGBZ7wLhSCAaPrIcpZm-28" style="edgeStyle=orthogonalEdgeStyle;rounded=0;orthogonalLoop=1;jettySize=auto;html=1;startArrow=classic;startFill=1;" edge="1" parent="WIyWlLk6GJQsqaUBKTNV-1" source="3cGBZ7wLhSCAaPrIcpZm-16" target="3cGBZ7wLhSCAaPrIcpZm-22">
          <mxGeometry relative="1" as="geometry">
            <Array as="points">
              <mxPoint x="260" y="520" />
            </Array>
          </mxGeometry>
        </mxCell>
        <mxCell id="3cGBZ7wLhSCAaPrIcpZm-29" style="edgeStyle=orthogonalEdgeStyle;rounded=0;orthogonalLoop=1;jettySize=auto;html=1;startArrow=classic;startFill=1;" edge="1" parent="WIyWlLk6GJQsqaUBKTNV-1" source="3cGBZ7wLhSCAaPrIcpZm-16" target="3cGBZ7wLhSCAaPrIcpZm-21">
          <mxGeometry relative="1" as="geometry" />
        </mxCell>
        <mxCell id="3cGBZ7wLhSCAaPrIcpZm-30" style="edgeStyle=orthogonalEdgeStyle;rounded=0;orthogonalLoop=1;jettySize=auto;html=1;startArrow=classic;startFill=1;" edge="1" parent="WIyWlLk6GJQsqaUBKTNV-1" source="3cGBZ7wLhSCAaPrIcpZm-16" target="3cGBZ7wLhSCAaPrIcpZm-18">
          <mxGeometry relative="1" as="geometry">
            <Array as="points">
              <mxPoint x="540" y="520" />
            </Array>
          </mxGeometry>
        </mxCell>
        <mxCell id="3cGBZ7wLhSCAaPrIcpZm-31" style="edgeStyle=orthogonalEdgeStyle;rounded=0;orthogonalLoop=1;jettySize=auto;html=1;startArrow=classic;startFill=1;" edge="1" parent="WIyWlLk6GJQsqaUBKTNV-1" source="3cGBZ7wLhSCAaPrIcpZm-16" target="3cGBZ7wLhSCAaPrIcpZm-19">
          <mxGeometry relative="1" as="geometry" />
        </mxCell>
        <mxCell id="3cGBZ7wLhSCAaPrIcpZm-16" value="Multi Thread&amp;nbsp;&lt;br&gt;Rebuild Handler" style="rounded=0;whiteSpace=wrap;html=1;" vertex="1" parent="WIyWlLk6GJQsqaUBKTNV-1">
          <mxGeometry x="340" y="480" width="120" height="60" as="geometry" />
        </mxCell>
        <mxCell id="3cGBZ7wLhSCAaPrIcpZm-18" value="DW/DI" style="rounded=0;whiteSpace=wrap;html=1;" vertex="1" parent="WIyWlLk6GJQsqaUBKTNV-1">
          <mxGeometry x="480" y="680" width="120" height="60" as="geometry" />
        </mxCell>
        <mxCell id="3cGBZ7wLhSCAaPrIcpZm-19" value="MELT MILL" style="rounded=0;whiteSpace=wrap;html=1;" vertex="1" parent="WIyWlLk6GJQsqaUBKTNV-1">
          <mxGeometry x="620" y="680" width="120" height="60" as="geometry" />
        </mxCell>
        <mxCell id="3cGBZ7wLhSCAaPrIcpZm-20" value="JOMINY" style="rounded=0;whiteSpace=wrap;html=1;" vertex="1" parent="WIyWlLk6GJQsqaUBKTNV-1">
          <mxGeometry x="340" y="680" width="120" height="60" as="geometry" />
        </mxCell>
        <mxCell id="3cGBZ7wLhSCAaPrIcpZm-21" value="SPEC MATCH" style="rounded=0;whiteSpace=wrap;html=1;" vertex="1" parent="WIyWlLk6GJQsqaUBKTNV-1">
          <mxGeometry x="60" y="680" width="120" height="60" as="geometry" />
        </mxCell>
        <mxCell id="3cGBZ7wLhSCAaPrIcpZm-22" value="CHEM" style="rounded=0;whiteSpace=wrap;html=1;" vertex="1" parent="WIyWlLk6GJQsqaUBKTNV-1">
          <mxGeometry x="200" y="680" width="120" height="60" as="geometry" />
        </mxCell>
        <mxCell id="3cGBZ7wLhSCAaPrIcpZm-32" value="Build JSON and Return" style="rounded=1;whiteSpace=wrap;html=1;" vertex="1" parent="WIyWlLk6GJQsqaUBKTNV-1">
          <mxGeometry x="590" y="400" width="120" height="60" as="geometry" />
        </mxCell>
        <mxCell id="3cGBZ7wLhSCAaPrIcpZm-34" value="" style="rounded=0;whiteSpace=wrap;html=1;fillColor=none;" vertex="1" parent="WIyWlLk6GJQsqaUBKTNV-1">
          <mxGeometry x="30" y="200" width="770" height="590" as="geometry" />
        </mxCell>
        <mxCell id="3cGBZ7wLhSCAaPrIcpZm-36" value="" style="endArrow=none;dashed=1;html=1;rounded=0;entryX=0;entryY=1;entryDx=0;entryDy=0;exitX=0;exitY=0;exitDx=0;exitDy=0;" edge="1" parent="WIyWlLk6GJQsqaUBKTNV-1" source="3cGBZ7wLhSCAaPrIcpZm-34" target="3cGBZ7wLhSCAaPrIcpZm-2">
          <mxGeometry width="50" height="50" relative="1" as="geometry">
            <mxPoint x="140" y="200" as="sourcePoint" />
            <mxPoint x="190" y="150" as="targetPoint" />
          </mxGeometry>
        </mxCell>
        <mxCell id="3cGBZ7wLhSCAaPrIcpZm-37" value="" style="endArrow=none;dashed=1;html=1;rounded=0;entryX=1;entryY=1;entryDx=0;entryDy=0;exitX=1;exitY=0;exitDx=0;exitDy=0;" edge="1" parent="WIyWlLk6GJQsqaUBKTNV-1" source="3cGBZ7wLhSCAaPrIcpZm-34" target="3cGBZ7wLhSCAaPrIcpZm-2">
          <mxGeometry width="50" height="50" relative="1" as="geometry">
            <mxPoint x="550" y="190" as="sourcePoint" />
            <mxPoint x="600" y="140" as="targetPoint" />
          </mxGeometry>
        </mxCell>
        <mxCell id="3cGBZ7wLhSCAaPrIcpZm-11" value="QRY Unique Heats" style="shape=cylinder3;whiteSpace=wrap;html=1;boundedLbl=1;backgroundOutline=1;size=15;" vertex="1" parent="WIyWlLk6GJQsqaUBKTNV-1">
          <mxGeometry x="570" y="250" width="126" height="80" as="geometry" />
        </mxCell>
      </root>
    </mxGraphModel>
  </diagram>
</mxfile>
